<mxfile host="65bd71144e">
    <diagram id="GuOx_50k6y2i7Fft9hjO" name="Page-1">
        <mxGraphModel dx="891" dy="259" grid="1" gridSize="10" guides="1" tooltips="1" connect="1" arrows="1" fold="1" page="1" pageScale="1" pageWidth="827" pageHeight="1169" math="0" shadow="0">
            <root>
                <mxCell id="0"/>
                <mxCell id="1" parent="0"/>
                <mxCell id="24" style="edgeStyle=none;html=1;strokeColor=#007FFF;" parent="1" source="2" target="10" edge="1">
                    <mxGeometry relative="1" as="geometry"/>
                </mxCell>
                <mxCell id="25" style="edgeStyle=none;html=1;strokeColor=#007FFF;entryX=0;entryY=0.5;entryDx=0;entryDy=0;" parent="1" source="2" target="11" edge="1">
                    <mxGeometry relative="1" as="geometry">
                        <Array as="points">
                            <mxPoint x="260" y="245"/>
                            <mxPoint x="260" y="340"/>
                        </Array>
                    </mxGeometry>
                </mxCell>
                <mxCell id="26" style="edgeStyle=none;html=1;entryX=0;entryY=0.5;entryDx=0;entryDy=0;fillColor=#0066CC;strokeColor=#007FFF;" parent="1" source="2" target="14" edge="1">
                    <mxGeometry relative="1" as="geometry">
                        <Array as="points">
                            <mxPoint x="260" y="245"/>
                            <mxPoint x="260" y="430"/>
                        </Array>
                    </mxGeometry>
                </mxCell>
                <mxCell id="27" style="edgeStyle=none;html=1;entryX=0;entryY=0.5;entryDx=0;entryDy=0;strokeColor=#007FFF;fillColor=#0066CC;" parent="1" target="16" edge="1">
                    <mxGeometry relative="1" as="geometry">
                        <mxPoint x="150" y="245" as="sourcePoint"/>
                        <Array as="points">
                            <mxPoint x="260" y="245"/>
                            <mxPoint x="260" y="425"/>
                            <mxPoint x="260" y="560"/>
                        </Array>
                    </mxGeometry>
                </mxCell>
                <mxCell id="31" style="edgeStyle=none;html=1;entryX=0;entryY=0.5;entryDx=0;entryDy=0;strokeColor=#007FFF;fillColor=#0066CC;" parent="1" target="15" edge="1">
                    <mxGeometry relative="1" as="geometry">
                        <mxPoint x="150" y="245" as="sourcePoint"/>
                        <Array as="points">
                            <mxPoint x="260" y="245"/>
                            <mxPoint x="260" y="690"/>
                        </Array>
                    </mxGeometry>
                </mxCell>
                <mxCell id="33" style="edgeStyle=none;html=1;entryX=0;entryY=0.5;entryDx=0;entryDy=0;strokeColor=#007FFF;fillColor=#007FFF;" parent="1" target="18" edge="1">
                    <mxGeometry relative="1" as="geometry">
                        <mxPoint x="150" y="245" as="sourcePoint"/>
                        <Array as="points">
                            <mxPoint x="260" y="245"/>
                            <mxPoint x="260" y="910"/>
                        </Array>
                    </mxGeometry>
                </mxCell>
                <mxCell id="2" value="Developer" style="shape=umlActor;verticalLabelPosition=bottom;verticalAlign=top;html=1;fillColor=#007FFF;" parent="1" vertex="1">
                    <mxGeometry x="120" y="215" width="30" height="60" as="geometry"/>
                </mxCell>
                <mxCell id="34" style="edgeStyle=none;html=1;strokeColor=#FF33FF;fillColor=#7F00FF;entryX=0;entryY=0;entryDx=0;entryDy=0;" parent="1" source="5" target="10" edge="1">
                    <mxGeometry relative="1" as="geometry">
                        <mxPoint x="350" y="245" as="targetPoint"/>
                        <Array as="points">
                            <mxPoint x="290" y="435"/>
                            <mxPoint x="290" y="220"/>
                        </Array>
                    </mxGeometry>
                </mxCell>
                <mxCell id="35" style="edgeStyle=none;html=1;strokeColor=#FF33FF;fillColor=#7F00FF;entryX=0;entryY=0;entryDx=0;entryDy=0;" parent="1" source="5" target="11" edge="1">
                    <mxGeometry relative="1" as="geometry">
                        <mxPoint x="350" y="340" as="targetPoint"/>
                        <Array as="points">
                            <mxPoint x="290" y="435"/>
                            <mxPoint x="290" y="315"/>
                        </Array>
                    </mxGeometry>
                </mxCell>
                <mxCell id="36" style="edgeStyle=none;html=1;strokeColor=#FF33FF;fillColor=#7F00FF;entryX=0;entryY=0;entryDx=0;entryDy=0;" parent="1" source="5" target="14" edge="1">
                    <mxGeometry relative="1" as="geometry">
                        <mxPoint x="350" y="430" as="targetPoint"/>
                        <Array as="points">
                            <mxPoint x="290" y="435"/>
                            <mxPoint x="290" y="405"/>
                        </Array>
                    </mxGeometry>
                </mxCell>
                <mxCell id="38" style="edgeStyle=none;html=1;entryX=0;entryY=0;entryDx=0;entryDy=0;strokeColor=#FF33FF;fillColor=#7F00FF;" parent="1" target="15" edge="1">
                    <mxGeometry relative="1" as="geometry">
                        <mxPoint x="150" y="435" as="sourcePoint"/>
                        <Array as="points">
                            <mxPoint x="290" y="435"/>
                            <mxPoint x="290" y="665"/>
                        </Array>
                    </mxGeometry>
                </mxCell>
                <mxCell id="39" style="edgeStyle=none;html=1;strokeColor=#FF33FF;fillColor=#7F00FF;entryX=0;entryY=0;entryDx=0;entryDy=0;" parent="1" source="5" target="16" edge="1">
                    <mxGeometry relative="1" as="geometry">
                        <Array as="points">
                            <mxPoint x="290" y="435"/>
                            <mxPoint x="290" y="535"/>
                        </Array>
                    </mxGeometry>
                </mxCell>
                <mxCell id="40" style="edgeStyle=none;html=1;entryX=0;entryY=0.5;entryDx=0;entryDy=0;strokeColor=#FF33FF;fillColor=#7F00FF;" parent="1" target="17" edge="1">
                    <mxGeometry relative="1" as="geometry">
                        <mxPoint x="150" y="435" as="sourcePoint"/>
                        <Array as="points">
                            <mxPoint x="290" y="435"/>
                            <mxPoint x="290" y="800"/>
                        </Array>
                    </mxGeometry>
                </mxCell>
                <mxCell id="41" style="edgeStyle=none;html=1;entryX=0;entryY=0;entryDx=0;entryDy=0;strokeColor=#FF33FF;fillColor=#7F00FF;" parent="1" target="18" edge="1">
                    <mxGeometry relative="1" as="geometry">
                        <mxPoint x="150" y="435" as="sourcePoint"/>
                        <Array as="points">
                            <mxPoint x="290" y="435"/>
                            <mxPoint x="290" y="885"/>
                        </Array>
                    </mxGeometry>
                </mxCell>
                <mxCell id="5" value="Tester" style="shape=umlActor;verticalLabelPosition=bottom;verticalAlign=top;html=1;fillColor=#FF00FF;" parent="1" vertex="1">
                    <mxGeometry x="120" y="405" width="30" height="60" as="geometry"/>
                </mxCell>
                <mxCell id="42" style="edgeStyle=none;html=1;strokeColor=#009900;fillColor=#7F00FF;" parent="1" source="7" edge="1">
                    <mxGeometry relative="1" as="geometry">
                        <mxPoint x="500" y="245" as="targetPoint"/>
                    </mxGeometry>
                </mxCell>
                <mxCell id="43" style="edgeStyle=none;html=1;entryX=1;entryY=0.5;entryDx=0;entryDy=0;strokeColor=#009900;fillColor=#7F00FF;" parent="1" target="11" edge="1">
                    <mxGeometry relative="1" as="geometry">
                        <mxPoint x="720" y="245" as="sourcePoint"/>
                        <Array as="points">
                            <mxPoint x="600" y="245"/>
                            <mxPoint x="600" y="340"/>
                        </Array>
                    </mxGeometry>
                </mxCell>
                <mxCell id="44" style="edgeStyle=none;html=1;entryX=1;entryY=0.5;entryDx=0;entryDy=0;strokeColor=#009900;fillColor=#7F00FF;" parent="1" target="15" edge="1">
                    <mxGeometry relative="1" as="geometry">
                        <mxPoint x="720" y="245" as="sourcePoint"/>
                        <Array as="points">
                            <mxPoint x="600" y="245"/>
                            <mxPoint x="600" y="690"/>
                        </Array>
                    </mxGeometry>
                </mxCell>
                <mxCell id="45" style="edgeStyle=none;html=1;entryX=1;entryY=0.5;entryDx=0;entryDy=0;strokeColor=#009900;fillColor=#7F00FF;" parent="1" target="17" edge="1">
                    <mxGeometry relative="1" as="geometry">
                        <mxPoint x="720" y="245" as="sourcePoint"/>
                        <Array as="points">
                            <mxPoint x="600" y="245"/>
                            <mxPoint x="600" y="800"/>
                        </Array>
                    </mxGeometry>
                </mxCell>
                <mxCell id="7" value="Scrum Master / &lt;br&gt;Project Manager /&lt;br&gt;Product Owner" style="shape=umlActor;verticalLabelPosition=bottom;verticalAlign=top;html=1;fillColor=#009900;" parent="1" vertex="1">
                    <mxGeometry x="720" y="215" width="30" height="60" as="geometry"/>
                </mxCell>
                <mxCell id="46" style="edgeStyle=none;html=1;entryX=1;entryY=1;entryDx=0;entryDy=0;strokeColor=#FF0000;fillColor=#7F00FF;" parent="1" source="8" target="10" edge="1">
                    <mxGeometry relative="1" as="geometry">
                        <Array as="points">
                            <mxPoint x="640" y="435"/>
                            <mxPoint x="640" y="270"/>
                        </Array>
                    </mxGeometry>
                </mxCell>
                <mxCell id="47" style="edgeStyle=none;html=1;entryX=1;entryY=1;entryDx=0;entryDy=0;strokeColor=#FF0000;fillColor=#7F00FF;" parent="1" source="8" target="11" edge="1">
                    <mxGeometry relative="1" as="geometry">
                        <Array as="points">
                            <mxPoint x="640" y="435"/>
                            <mxPoint x="640" y="365"/>
                        </Array>
                    </mxGeometry>
                </mxCell>
                <mxCell id="48" style="edgeStyle=none;html=1;entryX=1;entryY=0.5;entryDx=0;entryDy=0;strokeColor=#FF0000;fillColor=#7F00FF;" parent="1" source="8" target="14" edge="1">
                    <mxGeometry relative="1" as="geometry"/>
                </mxCell>
                <mxCell id="49" style="edgeStyle=none;html=1;entryX=1;entryY=0.5;entryDx=0;entryDy=0;strokeColor=#FF0000;fillColor=#7F00FF;" parent="1" target="16" edge="1">
                    <mxGeometry relative="1" as="geometry">
                        <mxPoint x="720" y="435" as="sourcePoint"/>
                        <Array as="points">
                            <mxPoint x="640" y="435"/>
                            <mxPoint x="640" y="560"/>
                        </Array>
                    </mxGeometry>
                </mxCell>
                <mxCell id="50" style="edgeStyle=none;html=1;entryX=1;entryY=1;entryDx=0;entryDy=0;strokeColor=#FF0000;fillColor=#7F00FF;" parent="1" source="8" target="15" edge="1">
                    <mxGeometry relative="1" as="geometry">
                        <Array as="points">
                            <mxPoint x="640" y="435"/>
                            <mxPoint x="640" y="715"/>
                        </Array>
                    </mxGeometry>
                </mxCell>
                <mxCell id="51" style="edgeStyle=none;html=1;entryX=1;entryY=1;entryDx=0;entryDy=0;strokeColor=#FF0000;fillColor=#7F00FF;" parent="1" target="17" edge="1">
                    <mxGeometry relative="1" as="geometry">
                        <mxPoint x="720" y="435" as="sourcePoint"/>
                        <Array as="points">
                            <mxPoint x="640" y="435"/>
                            <mxPoint x="640" y="825"/>
                        </Array>
                    </mxGeometry>
                </mxCell>
                <mxCell id="52" style="edgeStyle=none;html=1;entryX=1;entryY=0.5;entryDx=0;entryDy=0;strokeColor=#FF0000;fillColor=#7F00FF;" parent="1" target="18" edge="1">
                    <mxGeometry relative="1" as="geometry">
                        <mxPoint x="720" y="435" as="sourcePoint"/>
                        <Array as="points">
                            <mxPoint x="640" y="435"/>
                            <mxPoint x="640" y="910"/>
                        </Array>
                    </mxGeometry>
                </mxCell>
                <mxCell id="8" value="Test Lead" style="shape=umlActor;verticalLabelPosition=bottom;verticalAlign=top;html=1;fillColor=#CC0000;" parent="1" vertex="1">
                    <mxGeometry x="720" y="405" width="30" height="60" as="geometry"/>
                </mxCell>
                <mxCell id="10" value="Login" style="ellipse;whiteSpace=wrap;html=1;" parent="1" vertex="1">
                    <mxGeometry x="355" y="210" width="140" height="70" as="geometry"/>
                </mxCell>
                <mxCell id="11" value="View test details" style="ellipse;whiteSpace=wrap;html=1;" parent="1" vertex="1">
                    <mxGeometry x="355" y="305" width="140" height="70" as="geometry"/>
                </mxCell>
                <mxCell id="14" value="Create tests" style="ellipse;whiteSpace=wrap;html=1;" parent="1" vertex="1">
                    <mxGeometry x="355" y="395" width="140" height="70" as="geometry"/>
                </mxCell>
                <mxCell id="15" value="View / generate report for current test/project" style="ellipse;whiteSpace=wrap;html=1;" parent="1" vertex="1">
                    <mxGeometry x="355" y="655" width="140" height="70" as="geometry"/>
                </mxCell>
                <mxCell id="16" value="Input / update test results" style="ellipse;whiteSpace=wrap;html=1;" parent="1" vertex="1">
                    <mxGeometry x="355" y="525" width="140" height="70" as="geometry"/>
                </mxCell>
                <mxCell id="17" value="View / generate report for historical tests/projects" style="ellipse;whiteSpace=wrap;html=1;" parent="1" vertex="1">
                    <mxGeometry x="355" y="765" width="140" height="70" as="geometry"/>
                </mxCell>
                <mxCell id="18" value="Create documentation" style="ellipse;whiteSpace=wrap;html=1;" parent="1" vertex="1">
                    <mxGeometry x="355" y="875" width="140" height="70" as="geometry"/>
                </mxCell>
                <mxCell id="28" value="Use" style="endArrow=open;endSize=12;dashed=1;html=1;strokeColor=#007FFF;fillColor=#0066CC;exitX=0.5;exitY=1;exitDx=0;exitDy=0;" parent="1" source="14" target="16" edge="1">
                    <mxGeometry width="160" relative="1" as="geometry">
                        <mxPoint x="330" y="515" as="sourcePoint"/>
                        <mxPoint x="490" y="515" as="targetPoint"/>
                    </mxGeometry>
                </mxCell>
                <mxCell id="29" value="Use" style="endArrow=open;endSize=12;dashed=1;html=1;strokeColor=#007FFF;fillColor=#0066CC;exitX=0.5;exitY=1;exitDx=0;exitDy=0;" parent="1" source="16" target="15" edge="1">
                    <mxGeometry width="160" relative="1" as="geometry">
                        <mxPoint x="330" y="635" as="sourcePoint"/>
                        <mxPoint x="490" y="635" as="targetPoint"/>
                    </mxGeometry>
                </mxCell>
                <mxCell id="30" value="Use" style="endArrow=open;endSize=12;dashed=1;html=1;strokeColor=#007FFF;fillColor=#0066CC;exitX=0.5;exitY=1;exitDx=0;exitDy=0;entryX=0.5;entryY=0;entryDx=0;entryDy=0;" parent="1" source="15" target="17" edge="1">
                    <mxGeometry width="160" relative="1" as="geometry">
                        <mxPoint x="440" y="735" as="sourcePoint"/>
                        <mxPoint x="600" y="735" as="targetPoint"/>
                    </mxGeometry>
                </mxCell>
                <mxCell id="53" value="&lt;h1&gt;User stories&lt;/h1&gt;&lt;p&gt;User stories for the Unit Testing System (UTS), a tool which is aimed at developers, testers, scrum masters and project managers&lt;/p&gt;" style="text;html=1;strokeColor=none;fillColor=none;spacing=5;spacingTop=-20;whiteSpace=wrap;overflow=hidden;rounded=0;shadow=1;" parent="1" vertex="1">
                    <mxGeometry x="355" y="40" width="190" height="120" as="geometry"/>
                </mxCell>
            </root>
        </mxGraphModel>
    </diagram>
</mxfile>